<svg width="20" height="20" viewBox="0 0 20 20" fill="none" xmlns="http://www.w3.org/2000/svg">
<rect width="20" height="20" rx="10" fill="white"/>
<path fill-rule="evenodd" clip-rule="evenodd" d="M8 7C8 5.89543 8.89543 5 10 5C11.1046 5 12 5.89543 12 7C12 8.10457 11.1046 9 10 9C8.89543 9 8 8.10457 8 7ZM10 4C8.34315 4 7 5.34315 7 7C7 8.65685 8.34315 10 10 10C11.6569 10 13 8.65685 13 7C13 5.34315 11.6569 4 10 4ZM10 11C8.37328 11 7.13414 11.509 6.29347 12.1992C5.47165 12.8739 5 13.7537 5 14.5V15.5C5 15.7761 5.22386 16 5.5 16H14.5C14.7761 16 15 15.7761 15 15.5V14.5C15 13.7559 14.5281 12.8763 13.7067 12.2012C12.8662 11.5104 11.6271 11 10 11ZM6 14.5C6 14.1413 6.25935 13.5211 6.92803 12.9721C7.57786 12.4385 8.58872 12 10 12C11.4109 12 12.4218 12.4396 13.0718 12.9738C13.7409 13.5237 14 14.1441 14 14.5V15H6V14.5Z" fill="#626D8A"/>
</svg>
